<svg width="220" height="54" viewBox="0 0 220 54" fill="none" xmlns="http://www.w3.org/2000/svg">
<path d="M27.204 17.7053H23.3117C22.1231 17.7053 21.5303 17.1127 21.5336 15.9274V15.1811C21.5336 14.6067 21.4521 14.0491 21.2485 13.5191C21.0448 12.9891 20.7384 12.5043 20.3467 12.0923C19.6248 11.28 18.5971 10.8036 17.5091 10.7767L11.4767 10.7767C10.3922 10.7545 9.35336 11.2121 8.63912 12.0263C8.22378 12.4381 7.89812 12.9307 7.6825 13.4735C7.46688 14.0164 7.36592 14.5977 7.38595 15.1811V40.6852C7.3733 41.2548 7.47374 41.8214 7.68149 42.3523C7.88924 42.8831 8.20021 43.3679 8.59653 43.7787C9.31953 44.5886 10.347 45.0634 11.4341 45.0896L17.5373 45.0896C18.0614 45.0942 18.5802 44.9852 19.0579 44.7703C19.5356 44.5553 19.9607 44.2395 20.3038 43.8447C20.7182 43.4312 21.0431 42.9376 21.2586 42.3942C21.4742 41.8508 21.557 41.3473 21.557 40.6852V39.8821C21.557 38.7645 22.1482 38.1702 23.3351 38.1702H27.1611C28.3481 38.1702 28.9393 38.7645 28.9393 39.8821V40.6852C29.0136 43.646 27.8077 46.4955 25.6288 48.5084C23.4404 50.5625 20.5274 51.6726 17.5228 51.5972L11.4341 51.5972C8.45127 51.6613 5.56286 50.5517 3.39436 48.5084C1.16647 46.524 -0.0736847 43.6629 0.00344068 40.6852L0.00344068 15.1811C-0.070136 12.2206 1.13572 9.37104 3.31392 7.3579C5.5366 5.31293 8.46736 4.20593 11.4909 4.26911H17.5278C20.5324 4.19368 23.4454 5.30373 25.6338 7.3579C27.8503 9.34841 29.0793 12.2081 28.9963 15.1811V15.9934C28.9821 17.111 28.3909 17.7053 27.204 17.7053ZM39.6379 13.9577H35.7504C34.5634 13.9577 33.9675 13.3634 33.9675 12.2505V9.15728C33.9675 8.03968 34.5634 7.45012 35.7504 7.45012H39.6379C40.8248 7.45012 41.4207 8.03968 41.4207 9.15728V12.2366C41.4255 13.3637 40.8248 13.9577 39.6379 13.9577ZM39.6379 51.5972H35.7504C34.5634 51.5972 33.9675 51.0076 33.9675 49.89V21.0302C33.9675 19.9126 34.5634 19.3183 35.7504 19.3183H39.6379C40.8248 19.3183 41.4207 19.9126 41.4207 21.0302V49.8853C41.4255 51.0076 40.8248 51.5972 39.6379 51.5972ZM64.466 50.2203C64.2928 50.658 64.0769 51.0052 63.7298 51.2578C63.3828 51.5104 63.0027 51.6308 62.5743 51.5972H57.7457C56.837 51.5972 56.0568 51.0843 55.7688 50.2203L46.1116 21.6917C46.0178 21.4152 45.9136 21.135 45.9136 20.832C45.9136 19.8464 46.4386 19.3183 47.5595 19.3183H51.253C51.6817 19.2869 52.1076 19.4087 52.4543 19.6619C52.801 19.9151 52.976 20.2198 53.1447 20.6999C53.3134 21.1801 60.1245 40.7514 60.1245 40.7514C60.1245 40.7514 66.8182 21.5731 67.1219 20.6999C67.4256 19.8268 68.1964 19.2601 69.0987 19.3183H72.726C73.8469 19.3183 74.3719 19.8464 74.3719 20.832C74.3719 21.1143 74.292 21.3437 74.2079 21.5913L64.466 50.2203ZM84.6155 14.2261H80.728C79.5411 14.2261 78.9451 13.6318 78.9451 12.5189V9.42564C78.9451 8.30804 79.5411 7.71848 80.728 7.71848H84.6155C85.8024 7.71848 86.3937 8.30804 86.3937 9.42564V12.505C86.3937 13.632 85.7977 14.2261 84.6155 14.2261ZM84.6155 51.5972H80.728C79.5411 51.5972 78.9451 51.0076 78.9451 49.89V21.0302C78.9451 19.9126 79.5411 19.3183 80.728 19.3183H84.6155C85.8024 19.3183 86.3937 19.9126 86.3937 21.0302V49.8853C86.3937 51.0076 85.7977 51.5972 84.6155 51.5972Z" fill="#0A2B23"/>
<path d="M112.333 26.2817C112.649 25.9633 112.843 25.5441 112.881 25.0977C112.881 25.0977 112.973 24.4264 113.24 22.4504C113.507 20.4744 110.98 19.4437 103.05 19.3908C100.027 19.3706 97.098 20.4344 94.8775 22.4796C92.7163 24.4218 91.5081 27.2043 91.567 30.1048L91.5668 41.2833C91.497 44.2158 92.7272 47.0294 94.9293 48.9745C97.1049 51.0117 99.8052 51.9972 103.035 51.9972C110.684 51.9972 112.438 51.0108 112.718 49.4683C112.998 47.9258 113.076 47.292 113.162 46.6779C113.248 46.0638 113.005 45.485 112.661 45.1545C112.251 44.7229 111.515 44.5523 110.946 44.7098C108.684 45.3358 106.923 45.6219 103.035 45.6219C102.495 45.622 101.96 45.5043 101.47 45.2771C100.98 45.0498 100.546 44.7185 100.198 44.3063C99.4159 43.4951 98.989 42.408 99.0108 41.2835L99.011 30.0956C98.9973 29.5228 99.1014 28.9532 99.317 28.422C99.5325 27.8908 99.8548 27.4092 100.264 27.0068C100.607 26.6113 101.032 26.2948 101.51 26.079C101.987 25.8633 102.499 25.761 103.168 25.761C107.038 25.761 108.433 26.1605 110.717 26.7453C111.307 26.8963 111.925 26.7544 112.333 26.2817Z" fill="#0A2B23"/>
<path d="M203.302 27.5362C203.262 28.5138 203.93 29.456 206.267 30.9378C206.267 30.9378 207.774 31.978 210.143 33.5025C212.513 35.0269 214.589 37.2392 214.757 39.9081C214.964 43.2073 214.108 46.1838 211.885 48.6345C210.062 50.7433 207.155 51.9972 203.678 51.9972C199.518 51.9972 196.725 50.5153 195.072 48.1216C194.046 46.5827 193.533 44.6449 193.533 42.8781C193.533 40.5983 193.932 38.3755 196.269 38.3755H199.404C201.056 38.3755 201.569 39.6294 201.626 40.4273C201.626 40.9403 201.512 41.3392 201.512 41.9092C201.569 43.79 202.88 44.4169 204.02 44.4169C205.787 44.4169 207.435 42.6144 206.984 40.7123C206.533 38.8102 203.349 37.2768 201.578 36.1975C197.703 33.8038 196.142 30.9675 195.967 27.5362C195.793 24.105 197.491 21.6312 198.606 20.3421C199.721 19.0531 202.274 17.0009 206.764 17.0009C210.753 17.0579 213.432 18.4828 215.085 20.8765C216.168 22.4724 216.681 24.4102 216.681 26.291C216.681 28.3428 216.282 30.4516 213.831 30.4516H210.753C209.1 30.4516 208.701 29.1977 208.644 28.5138C208.644 27.8869 208.758 27.4879 208.758 26.918C208.701 25.0371 207.39 24.4102 206.251 24.4102C204.427 24.4102 203.365 26.0076 203.302 27.5362Z" fill="#0A2B23"/>
<path d="M166.595 47.8394L172.773 4.18562C172.944 3.10273 173.628 2.01984 175.167 2.01984H178.415C180.068 2.01984 180.752 3.33071 180.752 4.24262C180.752 4.64158 180.695 5.32552 180.524 6.57939C180.524 7.09234 179.108 16.2299 179.051 16.7999C179.051 17.4838 179.735 17.9398 180.532 17.9398H181.558C184.123 17.9398 186.232 18.5667 187.828 19.8776C189.652 21.3594 190.677 23.6392 190.734 26.7739C190.734 27.5718 190.734 28.3698 190.449 30.6495L189.222 39.8032C188.652 44.0778 187.626 46.8705 186.03 48.8083C184.206 50.9171 181.812 52 178.564 52C177.367 52 176.284 51.829 175.258 51.4301C174.232 51.0311 173.548 50.8601 172.978 50.8601C172.465 50.8601 172.066 51.0311 171.781 51.2021L171.382 51.4301C170.869 51.7151 170.071 52 169.445 52C167.336 52 166.538 50.8032 166.538 49.0363C166.538 48.6374 166.595 48.2954 166.595 47.8394ZM181.014 41.0571L182.527 30.0796C182.755 28.5407 182.755 28.2558 182.755 27.8568C182.698 25.976 181.387 25.2351 180.133 25.2351C179.165 25.2351 178.652 25.52 178.139 26.033C177.626 26.6029 177.455 27.1729 177.227 28.7687L175.714 39.5182C175.543 40.8861 175.543 41.3991 175.543 41.798C175.543 43.6788 176.854 44.4198 178.108 44.4198C179.077 44.4198 179.59 44.1348 180.103 43.6218C180.615 43.0519 180.843 42.539 181.014 41.0571Z" fill="#0A2B23"/>
<path d="M154.288 38.3752C154.288 37.5203 153.832 37.1214 152.863 37.1214H151.837C149.671 37.1214 148.702 38.6032 148.474 40.598C148.36 41.282 148.36 41.6239 148.36 42.0229C148.417 43.8467 149.785 44.4167 150.925 44.4167C151.894 44.4167 152.521 44.1887 153.034 43.6757C153.49 43.1058 153.775 42.4788 154.003 40.94C154.117 39.9141 154.288 38.7742 154.288 38.3752ZM148.873 51.997C143.744 51.997 140.324 48.1213 140.324 42.6498C140.324 39.5721 141.293 36.1525 143.687 33.7017C145.568 31.7069 148.36 30.396 152.464 30.396H154.117C154.972 30.396 155.542 29.9971 155.656 29.1422C155.87 28.2652 155.876 27.9879 155.876 27.0848C155.819 25.204 154.565 24.691 153.425 24.691C152.144 24.691 150.737 25.3561 150.471 26.6858C150.243 27.9967 149.502 28.8516 148.078 28.8516H144.658C143.005 28.8516 142.435 27.5408 142.378 26.6288C142.257 24.691 143.337 22.7532 145.446 20.4165C147.27 18.4217 149.948 17.1108 153.425 17.1108C157.586 17.1108 160.378 18.5926 162.031 20.9864C163.114 22.5822 163.684 24.2921 163.741 26.6858C163.741 28.1677 163.749 27.9453 163.464 29.8261L160.671 49.0332C160.443 50.5151 159.36 51.997 157.593 51.997C156.795 51.997 156.34 51.826 155.77 51.541L155.428 51.37C154.972 51.142 154.516 50.8001 154.003 50.8001C153.49 50.8001 152.977 50.9711 152.35 51.256C151.552 51.598 150.583 51.997 148.873 51.997Z" fill="#0A2B23"/>
<path d="M131.513 7.64245L127.01 39.5751C126.839 40.943 126.668 42.1969 126.668 42.3109C126.668 42.9948 127.295 43.5647 128.093 43.5647H134.416C136.069 43.5647 136.753 44.8756 136.753 45.7875C136.753 46.1865 136.639 46.6424 136.525 47.7823L136.24 49.4352C136.069 50.5181 135.385 51.6009 133.846 51.6009H119.771C118.119 51.6009 117.492 50.2901 117.492 49.3782C117.492 48.9792 117.549 48.5802 117.72 47.4404L123.761 4.16579C123.932 3.08289 124.616 2 126.155 2H129.575C131.228 2 131.912 3.31087 131.912 4.22279C131.912 4.62174 131.798 5.81863 131.513 7.64245Z" fill="#0A2B23"/>
</svg>
